:SAMPLES-PER-SECOND 30
:FRAME-RANGE 1-1086
:FULLY-SPECIFIED
:DEGREES
1053
root  -93.2188 39.4224 -26.4683 1.24664 16.8338 -2.36182
RightUpLeg  -7.59569 -1.22941 -0.303844
RightLeg  12.5438 7.45304 1.31836
RightFoot  -6.41547 -0.1143 1.6437
RightToes  1.21801e-010 1.2921e-014 -6.02303e-014
Spine  -10.4534 0.18079 6.47259
Spine1  12.0821 -0.206791 -1.31078
HEad  8.6422 69.8394 -7.84253
LeftShoulder1  0.155135 2.74336 -21.5194
LeftArm  -0.270586 5.64659 -54.4852
LeftForeArm  35.6093 3.2339 -13.5343
LeftHand  -0.0266832 5.33681 3.96156
RightShoulder  1.3434 0.97272 25.2857
RightArm  -30.4012 -3.55344 48.3707
RightForeArm  62.6664 -5.16931 1.09086
RightHand  0.0260722 -5.70286 -15.4128
LeftUpLeg  1.98144 1.31751 5.57569
LeftLeg  9.8025 -7.04928 1.48659
LeftFoot  -13.2286 0.0435883 -2.16922
LeftToes  3.79492e-011 -8.60219e-011 1.56273e-011
1054
root  -93.2432 39.4239 -26.4196 1.34033 16.5644 -2.46045
RightUpLeg  -7.59559 -0.699934 -0.043851
RightLeg  12.3643 7.3447 1.10335
RightFoot  -6.40422 -0.111834 1.58457
RightToes  1.21801e-010 1.2921e-014 -6.02303e-014
Spine  -10.6148 0.103741 6.51064
Spine1  12.3877 -0.352111 -1.05363
HEad  9.30241 69.7556 -7.67942
LeftShoulder1  0.206312 2.55397 -21.3431
LeftArm  -0.812281 5.27213 -54.7747
LeftForeArm  35.7458 3.30561 -13.3646
LeftHand  -0.0142312 5.88974 3.27724
RightShoulder  1.29542 0.804311 25.4018
RightArm  -29.9828 -3.69883 47.9611
RightForeArm  61.3416 -5.25505 1.32463
RightHand  -0.0475447 -5.154 -17.2351
LeftUpLeg  2.01321 1.18165 5.66898
LeftLeg  9.71119 -6.62861 1.59895
LeftFoot  -13.2361 0.0414416 -2.29295
LeftToes  3.79492e-011 -8.60219e-011 1.56273e-011
1055
root  -93.2674 39.4197 -26.3727 1.47287 16.2656 -2.54272
RightUpLeg  -7.73793 -0.824524 0.0701526
RightLeg  12.3507 7.85844 1.2449
RightFoot  -6.43471 -0.0896421 1.0722
RightToes  1.21801e-010 1.2921e-014 -6.02303e-014
Spine  -10.5786 -0.00726731 6.5144
Spine1  12.3747 -0.537557 -0.733503
HEad  10.6006 69.8312 -6.70625
LeftShoulder1  0.190312 2.61266 -21.3654
LeftArm  -0.942405 4.99661 -54.8425
LeftForeArm  35.8129 3.23679 -13.2901
LeftHand  -0.0230032 5.49705 3.45964
RightShoulder  1.27986 0.737316 25.5425
RightArm  -30.1185 -4.18032 47.4101
RightForeArm  61.5659 -5.23743 1.26636
RightHand  -0.0716201 -4.99569 -17.5774
LeftUpLeg  1.96724 0.801678 5.67926
LeftLeg  9.71242 -5.94819 1.79007
LeftFoot  -13.3072 0.0356273 -2.57313
LeftToes  3.79492e-011 -8.60219e-011 1.56273e-011
1056
root  -93.2842 39.4189 -26.3233 1.64017 15.853 -2.62183
RightUpLeg  -7.93135 -0.988809 0.206188
RightLeg  12.4038 8.30387 1.40167
RightFoot  -6.41914 -0.0916032 1.11683
RightToes  1.21801e-010 1.2921e-014 -6.02303e-014
Spine  -10.721 -0.0356251 6.72937
Spine1  12.4817 -0.596487 -0.666639
HEad  12.1375 70.0089 -5.30599
LeftShoulder1  0.205225 2.55469 -21.2165
LeftArm  -0.707597 4.81842 -55.0285
LeftForeArm  35.2164 2.92484 -13.3466
LeftHand  -0.0232569 5.48397 3.49762
RightShoulder  1.31135 0.831571 25.5901
RightArm  -30.5973 -4.46417 47.1004
RightForeArm  62.3556 -5.16346 0.992281
RightHand  0.0263676 -5.68053 -16.3135
LeftUpLeg  1.95692 0.494246 5.67027
LeftLeg  9.64907 -5.20998 2.01188
LeftFoot  -13.3509 0.0284717 -2.93931
LeftToes  3.79492e-011 -8.60219e-011 1.56273e-011
1057
root  -93.3091 39.4108 -26.2694 1.74353 15.5763 -2.7265
RightUpLeg  -8.01924 -0.915314 0.389834
RightLeg  12.4024 8.49534 1.43745
RightFoot  -6.47522 -0.087083 1.03252
RightToes  1.21801e-010 1.2921e-014 -6.02303e-014
Spine  -10.8134 -0.0990692 6.87074
Spine1  12.5934 -0.707375 -0.557488
HEad  13.4966 70.1012 -3.88199
LeftShoulder1  0.209529 2.53658 -21.1255
LeftArm  -0.879765 4.5964 -55.2885
LeftForeArm  35.3323 2.70696 -13.2586
LeftHand  -0.0256843 5.38855 3.47528
RightShoulder  1.29867 0.78813 25.6154
RightArm  -30.5415 -4.15224 46.6621
RightForeArm  62.099 -5.16613 0.955336
RightHand  -0.00968847 -5.41632 -16.7397
LeftUpLeg  1.9089 0.314414 5.77818
LeftLeg  9.74125 -4.74877 2.08934
LeftFoot  -13.4491 0.0243318 -3.05912
LeftToes  3.79492e-011 -8.60219e-011 1.56273e-011
1058
root  -93.3434 39.4029 -26.2059 1.79776 15.2148 -2.80719
RightUpLeg  -8.07284 -0.672612 0.58305
RightLeg  12.4537 8.61138 1.43458
RightFoot  -6.54076 -0.0858025 0.984554
RightToes  1.21801e-010 1.2921e-014 -6.02303e-014
Spine  -10.8601 -0.0888922 7.01205
Spine1  12.689 -0.707207 -0.574079
HEad  13.6954 70.0912 -3.60763
LeftShoulder1  0.233587 2.44649 -21.0582
LeftArm  -0.568537 4.38237 -55.3855
LeftForeArm  35.2978 2.32354 -13.3111
LeftHand  -0.0354817 5.00937 3.61723
RightShoulder  1.28815 0.736841 25.7621
RightArm  -30.8594 -4.33249 46.3272
RightForeArm  62.1553 -5.1329 0.771487
RightHand  0.00104334 -5.49376 -16.5924
LeftUpLeg  1.9893 0.340794 5.89365
LeftLeg  9.74199 -4.43347 2.15676
LeftFoot  -13.5571 0.021651 -3.08196
LeftToes  3.79492e-011 -8.60219e-011 1.56273e-011
1059
root  -93.3909 39.3982 -26.1421 1.91656 14.9205 -2.92017
RightUpLeg  -8.23288 -0.363531 0.823385
RightLeg  12.5823 8.47636 1.42529
RightFoot  -6.60603 -0.0797366 0.867786
RightToes  1.21801e-010 1.2921e-014 -6.02303e-014
Spine  -11.0132 -0.124716 7.08958
Spine1  12.8231 -0.789529 -0.530997
HEad  13.4464 70.0692 -3.81252
LeftShoulder1  0.244449 2.40918 -21.1414
LeftArm  -0.572643 4.12197 -55.4646
LeftForeArm  35.2834 2.12724 -13.2879
LeftHand  -0.0426793 4.78884 3.95439
RightShoulder  1.29496 0.76034 25.7459
RightArm  -31.3232 -4.51416 46.2326
RightForeArm  62.3225 -5.08287 0.512079
RightHand  -0.00385297 -5.45916 -16.5783
LeftUpLeg  1.95827 0.466792 6.09922
LeftLeg  9.79381 -4.36387 2.17893
LeftFoot  -13.6615 0.0134017 -3.38082
LeftToes  3.79492e-011 -8.60219e-011 1.56273e-011
1060
root  -93.4319 39.4042 -26.0746 1.92383 14.7793 -2.90204
RightUpLeg  -8.27672 -0.238658 0.908736
RightLeg  12.7902 8.44095 1.44735
RightFoot  -6.67494 -0.0825478 0.913651
RightToes  1.21801e-010 1.2921e-014 -6.02303e-014
Spine  -10.6453 -0.226867 6.94142
Spine1  12.45 -0.904212 -0.360209
HEad  13.1457 70.2793 -3.93472
LeftShoulder1  0.218373 2.50174 -21.0365
LeftArm  -0.0619867 4.0446 -55.6143
LeftForeArm  34.7341 1.66555 -13.4054
LeftHand  -0.0274176 5.31714 3.59466
RightShoulder  1.27933 0.689148 25.9269
RightArm  -32.0465 -5.6122 46.0826
RightForeArm  63.2768 -5.00031 0.225116
RightHand  0.0857822 -6.17759 -15.1347
LeftUpLeg  2.16702 0.562366 6.12726
LeftLeg  9.60575 -4.21033 2.29173
LeftFoot  -13.5705 0.0211547 -3.09301
LeftToes  3.79492e-011 -8.60219e-011 1.56273e-011
